<?plantuml 1.2026.2?><svg xmlns="http://www.w3.org/2000/svg" xmlns:xlink="http://www.w3.org/1999/xlink" contentStyleType="text/css" data-diagram-type="DESCRIPTION" height="281px" preserveAspectRatio="none" style="width:1423px;height:281px;background:#FFFFFF;" version="1.1" viewBox="0 0 1423 281" width="1423px" zoomAndPan="magnify"><title>quick-research-graph.ts - Architecture</title><defs/><g><g class="title" data-source-line="1"><text fill="#000000" font-family="sans-serif" font-size="14" font-weight="bold" lengthAdjust="spacing" textLength="254.4063" x="577.2969" y="24.5332">quick-research-graph.ts - Architecture</text></g><!--cluster Graph Entry--><g class="cluster" data-qualified-name="Graph Entry" data-source-line="5" id="ent0002"><path d="M711.5,44.6094 L793.4033,44.6094 A3.75,3.75 0 0 1 795.9033,47.1094 L802.9033,68.2188 L978.5,68.2188 A2.5,2.5 0 0 1 981,70.7188 L981,132.1094 A2.5,2.5 0 0 1 978.5,134.6094 L711.5,134.6094 A2.5,2.5 0 0 1 709,132.1094 L709,47.1094 A2.5,2.5 0 0 1 711.5,44.6094" fill="none" style="stroke:#000000;stroke-width:1.5;"/><line style="stroke:#000000;stroke-width:1.5;" x1="709" x2="802.9033" y1="68.2188" y2="68.2188"/><text fill="#000000" font-family="sans-serif" font-size="14" font-weight="bold" lengthAdjust="spacing" textLength="80.9033" x="713" y="61.1426">Graph Entry</text></g><!--cluster Key Collaborators--><g class="cluster" data-qualified-name="Key Collaborators" data-source-line="9" id="ent0004"><path d="M489.5,184.6094 L611.0859,184.6094 A3.75,3.75 0 0 1 613.5859,187.1094 L620.5859,208.2188 L1413.5,208.2188 A2.5,2.5 0 0 1 1416,210.7188 L1416,272.1094 A2.5,2.5 0 0 1 1413.5,274.6094 L489.5,274.6094 A2.5,2.5 0 0 1 487,272.1094 L487,187.1094 A2.5,2.5 0 0 1 489.5,184.6094" fill="none" style="stroke:#000000;stroke-width:1.5;"/><line style="stroke:#000000;stroke-width:1.5;" x1="487" x2="620.5859" y1="208.2188" y2="208.2188"/><text fill="#000000" font-family="sans-serif" font-size="14" font-weight="bold" lengthAdjust="spacing" textLength="120.5859" x="491" y="201.1426">Key Collaborators</text></g><!--entity entrypoint--><g class="entity" data-qualified-name="Graph Entry.entrypoint" data-source-line="6" id="ent0003"><rect fill="#F1F1F1" height="37.6094" rx="2.5" ry="2.5" style="stroke:#181818;stroke-width:0.5;" width="238.668" x="725.5" y="80.6094"/><text fill="#000000" font-family="sans-serif" font-size="14" lengthAdjust="spacing" textLength="218.668" x="735.5" y="105.1426">QuickResearchContractLangGraph</text></g><!--entity dep_a--><g class="entity" data-qualified-name="Key Collaborators.dep_a" data-source-line="10" id="ent0005"><rect fill="#F1F1F1" height="37.6094" rx="2.5" ry="2.5" style="stroke:#181818;stroke-width:0.5;" width="219.9443" x="503" y="220.6094"/><text fill="#000000" font-family="sans-serif" font-size="14" lengthAdjust="spacing" textLength="199.9443" x="513" y="245.1426">QuickResearchWorkflowService</text></g><!--entity dep_b--><g class="entity" data-qualified-name="Key Collaborators.dep_b" data-source-line="11" id="ent0006"><rect fill="#F1F1F1" height="37.6094" rx="2.5" ry="2.5" style="stroke:#181818;stroke-width:0.5;" width="174.0957" x="758" y="220.6094"/><text fill="#000000" font-family="sans-serif" font-size="14" lengthAdjust="spacing" textLength="154.0957" x="768" y="245.1426">IntelligenceAgentService</text></g><!--entity dep_c--><g class="entity" data-qualified-name="Key Collaborators.dep_c" data-source-line="12" id="ent0007"><rect fill="#F1F1F1" height="37.6094" rx="2.5" ry="2.5" style="stroke:#181818;stroke-width:0.5;" width="217.6475" x="967" y="220.6094"/><text fill="#000000" font-family="sans-serif" font-size="14" lengthAdjust="spacing" textLength="197.6475" x="977" y="245.1426">resolveResearchRuntimeConfig</text></g><!--entity dep_d--><g class="entity" data-qualified-name="Key Collaborators.dep_d" data-source-line="13" id="ent0008"><rect fill="#F1F1F1" height="37.6094" rx="2.5" ry="2.5" style="stroke:#181818;stroke-width:0.5;" width="179.5234" x="1220" y="220.6094"/><text fill="#000000" font-family="sans-serif" font-size="14" lengthAdjust="spacing" textLength="159.5234" x="1230" y="245.1426">BaseWorkflowLangGraph</text></g><g class="entity" data-qualified-name="GMN13" data-source-line="22" id="ent0014"><path d="M6,218.1094 L6,260.8125 L467.7305,260.8125 L467.7305,228.1094 L457.7305,218.1094 L6,218.1094" fill="#FEFFDD" style="stroke:#181818;stroke-width:0.5;"/><path d="M457.7305,218.1094 L457.7305,228.1094 L467.7305,228.1094 L457.7305,218.1094" fill="#FEFFDD" style="stroke:#181818;stroke-width:1;"/><text fill="#000000" font-family="sans-serif" font-size="13" lengthAdjust="spacing" textLength="440.7305" x="12" y="236.6045">Source: src/server/infrastructure/workflow/langgraph/quick-research-graph.ts</text><text fill="#000000" font-family="sans-serif" font-size="13" lengthAdjust="spacing" textLength="286.8633" x="12" y="252.9561">Focus: state model plus v1/v2/v3 research graphs</text></g><!--link entrypoint to dep_a--><g class="link" data-entity-1="ent0003" data-entity-2="ent0005" data-link-type="dependency" data-source-line="16" id="lnk9"><path d="M774.71,118.6594 C750.92,126.4794 724.86,137.0094 703,150.6094 C672.38,169.6494 647.6839,196.0924 631.2639,215.7724" fill="none" id="entrypoint-to-dep_a" style="stroke:#181818;stroke-width:1;"/><polygon fill="#181818" points="627.42,220.3794,636.2572,216.0314,630.6232,216.5402,630.1145,210.9063,627.42,220.3794" style="stroke:#181818;stroke-width:1;"/><text fill="#000000" font-family="sans-serif" font-size="13" lengthAdjust="spacing" textLength="132.2471" x="704" y="165.1045">plan / execute / finalize</text></g><!--link entrypoint to dep_b--><g class="link" data-entity-1="ent0003" data-entity-2="ent0006" data-link-type="dependency" data-source-line="17" id="lnk10"><path d="M845,118.6494 C845,145.0994 845,188.1094 845,214.5594" fill="none" id="entrypoint-to-dep_b" style="stroke:#181818;stroke-width:1;"/><polygon fill="#181818" points="845,220.5594,849,211.5594,845,215.5594,841,211.5594,845,220.5594" style="stroke:#181818;stroke-width:1;"/><text fill="#000000" font-family="sans-serif" font-size="13" lengthAdjust="spacing" textLength="138.7534" x="846" y="165.1045">support legacy v1 graph</text></g><!--link entrypoint to dep_c--><g class="link" data-entity-1="ent0003" data-entity-2="ent0007" data-link-type="dependency" data-source-line="18" id="lnk11"><path d="M921.63,118.6794 C945.61,126.3394 971.43,136.7694 993,150.6094 C1022.35,169.4294 1044.9358,196.035 1059.7258,215.805" fill="none" id="entrypoint-to-dep_c" style="stroke:#181818;stroke-width:1;"/><polygon fill="#181818" points="1063.32,220.6094,1061.1317,211.0067,1060.3249,216.6057,1054.7258,215.7989,1063.32,220.6094" style="stroke:#181818;stroke-width:1;"/><text fill="#000000" font-family="sans-serif" font-size="13" lengthAdjust="spacing" textLength="120.6689" x="1015" y="165.1045">derive runtime config</text></g><!--link entrypoint to dep_d--><g class="link" data-entity-1="ent0003" data-entity-2="ent0008" data-link-type="dependency" data-source-line="19" id="lnk12"><path d="M964.78,113.6894 C1020.07,121.4794 1086.13,133.3194 1144,150.6094 C1171.46,158.8094 1177.45,163.6294 1203,176.6094 C1229.8,190.2294 1254.1577,204.3814 1275.3777,217.2314" fill="none" id="entrypoint-to-dep_d" style="stroke:#181818;stroke-width:1;"/><polygon fill="#181818" points="1280.51,220.3394,1274.8835,212.2559,1276.2331,217.7494,1270.7396,219.099,1280.51,220.3394" style="stroke:#181818;stroke-width:1;"/><text fill="#000000" font-family="sans-serif" font-size="13" lengthAdjust="spacing" textLength="168.3652" x="1188" y="165.1045">inherit graph lifecycle helpers</text></g><!--link entrypoint to GMN13--><g class="link" data-entity-1="ent0003" data-entity-2="ent0014" data-link-type="association" data-source-line="22" id="lnk15"><path d="M755.81,118.6694 C683.27,133.5694 578.33,155.5994 487,176.6094 C429.91,189.7394 365.79,205.6694 316.77,218.0894" fill="none" id="entrypoint-GMN13" style="stroke:#181818;stroke-width:1;stroke-dasharray:7,7;"/></g><?plantuml-src VLB1ZjD03BtdAwpUin5mux3IiWA4uCBsi4VaJfp9g9Fnu77I3OX_nqctR8iAjupotlDxpzQWaU3x6Do-5Yg4ulhQ2-R-HWlKS6VleEHq5AhAFgICWWEK7bi-XEIXmrZE_pWUCYTAkjNPbCMec7oagihezkW9DXyNUNYVLEOD_ApWXGERhukJXsSZzsmOTFh555RI1h00BSJC8MdrwqprCyrmpp7YZWMLfVnV-v5btqK-R4ccu6XLRYb_mqlEfwGKO_2K7Dtv9TPV-DqbtZhaED5foiEOD0naGRhW_t3S9UST5ZhPkOowWDibvKjcgElRer5u2pbYWWReYToeP5zTI1Z33xf6s1cXZ3cpA4Jow6QONi6wwsjmP_2M94osn6CAyxp4k0Pk3HnIRt0zAa8C7RdPsGdq53D9gQh4vd77gZm0T-TxtF8eZioUkAPOmIHDI9rWKHdNqsiEp_qqbjYl4vf_76trWTrOJ4lHnWtSKhIUnc9Xc-brCxs14-Nej5YU5XPllm40?></g></svg>