<?plantuml 1.2026.2?><svg xmlns="http://www.w3.org/2000/svg" xmlns:xlink="http://www.w3.org/1999/xlink" contentStyleType="text/css" data-diagram-type="DESCRIPTION" height="281px" preserveAspectRatio="none" style="width:965px;height:281px;background:#FFFFFF;" version="1.1" viewBox="0 0 965 281" width="965px" zoomAndPan="magnify"><title>graph-registry.ts - Architecture</title><defs/><g><g class="title" data-source-line="1"><text fill="#000000" font-family="sans-serif" font-size="14" font-weight="bold" lengthAdjust="spacing" textLength="206.1582" x="372.5645" y="24.5332">graph-registry.ts - Architecture</text></g><!--cluster Registry--><g class="cluster" data-qualified-name="Registry" data-source-line="5" id="ent0002"><path d="M553,44.6094 L610.0205,44.6094 A3.75,3.75 0 0 1 612.5205,47.1094 L619.5205,68.2188 L620,68.2188 A2.5,2.5 0 0 1 622.5,70.7188 L622.5,132.1094 A2.5,2.5 0 0 1 620,134.6094 L553,134.6094 A2.5,2.5 0 0 1 550.5,132.1094 L550.5,47.1094 A2.5,2.5 0 0 1 553,44.6094" fill="none" style="stroke:#000000;stroke-width:1.5;"/><line style="stroke:#000000;stroke-width:1.5;" x1="550.5" x2="619.5205" y1="68.2188" y2="68.2188"/><text fill="#000000" font-family="sans-serif" font-size="14" font-weight="bold" lengthAdjust="spacing" textLength="56.0205" x="554.5" y="61.1426">Registry</text></g><!--cluster Key Collaborators--><g class="cluster" data-qualified-name="Key Collaborators" data-source-line="9" id="ent0004"><path d="M446,184.6094 L567.5859,184.6094 A3.75,3.75 0 0 1 570.0859,187.1094 L577.0859,208.2188 L941,208.2188 A2.5,2.5 0 0 1 943.5,210.7188 L943.5,272.1094 A2.5,2.5 0 0 1 941,274.6094 L446,274.6094 A2.5,2.5 0 0 1 443.5,272.1094 L443.5,187.1094 A2.5,2.5 0 0 1 446,184.6094" fill="none" style="stroke:#000000;stroke-width:1.5;"/><line style="stroke:#000000;stroke-width:1.5;" x1="443.5" x2="577.0859" y1="208.2188" y2="208.2188"/><text fill="#000000" font-family="sans-serif" font-size="14" font-weight="bold" lengthAdjust="spacing" textLength="120.5859" x="447.5" y="201.1426">Key Collaborators</text></g><!--entity entrypoint--><g class="entity" data-qualified-name="Registry.entrypoint" data-source-line="6" id="ent0003"><rect fill="#F1F1F1" height="37.6094" rx="2.5" ry="2.5" style="stroke:#181818;stroke-width:0.5;" width="39.4619" x="567" y="80.6094"/><text fill="#000000" font-family="sans-serif" font-size="14" lengthAdjust="spacing" textLength="19.4619" x="577" y="105.1426">get</text></g><!--entity dep_a--><g class="entity" data-qualified-name="Key Collaborators.dep_a" data-source-line="10" id="ent0005"><rect fill="#F1F1F1" height="37.6094" rx="2.5" ry="2.5" style="stroke:#181818;stroke-width:0.5;" width="126.6133" x="460" y="220.6094"/><text fill="#000000" font-family="sans-serif" font-size="14" lengthAdjust="spacing" textLength="106.6133" x="470" y="245.1426">graphsByVersion</text></g><!--entity dep_b--><g class="entity" data-qualified-name="Key Collaborators.dep_b" data-source-line="11" id="ent0006"><rect fill="#F1F1F1" height="37.6094" rx="2.5" ry="2.5" style="stroke:#181818;stroke-width:0.5;" width="112.6133" x="622" y="220.6094"/><text fill="#000000" font-family="sans-serif" font-size="14" lengthAdjust="spacing" textLength="92.6133" x="632" y="245.1426">graphsByCode</text></g><!--entity dep_c--><g class="entity" data-qualified-name="Key Collaborators.dep_c" data-source-line="12" id="ent0007"><rect fill="#F1F1F1" height="37.6094" rx="2.5" ry="2.5" style="stroke:#181818;stroke-width:0.5;" width="156.9102" x="770" y="220.6094"/><text fill="#000000" font-family="sans-serif" font-size="14" lengthAdjust="spacing" textLength="136.9102" x="780" y="245.1426">WorkflowDomainError</text></g><g class="entity" data-qualified-name="GMN11" data-source-line="20" id="ent0012"><path d="M6,218.1094 L6,260.8125 A0,0 0 0 0 6,260.8125 L425.0933,260.8125 A0,0 0 0 0 425.0933,260.8125 L425.0933,228.1094 L415.0933,218.1094 L274.84,218.1094 L566.82,107.9294 L266.84,218.1094 L6,218.1094 A0,0 0 0 0 6,218.1094" fill="#FEFFDD" style="stroke:#181818;stroke-width:0.5;"/><path d="M415.0933,218.1094 L415.0933,228.1094 L425.0933,228.1094 L415.0933,218.1094" fill="#FEFFDD" style="stroke:#181818;stroke-width:0.5;"/><text fill="#000000" font-family="sans-serif" font-size="13" lengthAdjust="spacing" textLength="398.0933" x="12" y="236.6045">Source: src/server/infrastructure/workflow/langgraph/graph-registry.ts</text><text fill="#000000" font-family="sans-serif" font-size="13" lengthAdjust="spacing" textLength="268.8169" x="12" y="252.9561">Focus: code/version to graph runner resolution</text></g><!--link entrypoint to dep_a--><g class="link" data-entity-1="ent0003" data-entity-2="ent0005" data-link-type="dependency" data-source-line="15" id="lnk8"><path d="M566.79,105.6394 C545.88,112.1494 513.9,125.7294 499.5,150.6094 C486.73,172.6794 496.4144,196.6557 507.6544,215.2357" fill="none" id="entrypoint-to-dep_a" style="stroke:#181818;stroke-width:1;"/><polygon fill="#181818" points="510.76,220.3694,509.524,210.5984,508.172,216.0913,502.6791,214.7392,510.76,220.3694" style="stroke:#181818;stroke-width:1;"/><text fill="#000000" font-family="sans-serif" font-size="13" lengthAdjust="spacing" textLength="127.1753" x="500.5" y="165.1045">explicit version lookup</text></g><!--link entrypoint to dep_b--><g class="link" data-entity-1="ent0003" data-entity-2="ent0006" data-link-type="dependency" data-source-line="16" id="lnk9"><path d="M605.66,119.0694 C614.45,128.0994 624.63,139.4194 632.5,150.6094 C648.36,173.1794 659.9081,196.4377 668.1781,214.8177" fill="none" id="entrypoint-to-dep_b" style="stroke:#181818;stroke-width:1;"/><polygon fill="#181818" points="670.64,220.2894,670.5948,210.4406,668.5884,215.7297,663.2993,213.7232,670.64,220.2894" style="stroke:#181818;stroke-width:1;"/><text fill="#000000" font-family="sans-serif" font-size="13" lengthAdjust="spacing" textLength="142.3589" x="643.5" y="165.1045">fallback to latest by code</text></g><!--link entrypoint to dep_c--><g class="link" data-entity-1="ent0003" data-entity-2="ent0007" data-link-type="dependency" data-source-line="17" id="lnk10"><path d="M606.02,100.5194 C645.43,101.2794 735.75,107.9394 794.5,150.6094 C818.72,168.1994 832.1289,194.7038 840.0489,214.8938" fill="none" id="entrypoint-to-dep_c" style="stroke:#181818;stroke-width:1;"/><polygon fill="#181818" points="842.24,220.4794,842.6771,210.6402,840.4141,215.8247,835.2296,213.5617,842.24,220.4794" style="stroke:#181818;stroke-width:1;"/><text fill="#000000" font-family="sans-serif" font-size="13" lengthAdjust="spacing" textLength="143.7871" x="813.5" y="165.1045">fail when code is missing</text></g><?plantuml-src RP91JyCm38Nl-HLMxwNt7P1Wm8KRa-28qjHjewPnPBkK2l7VoRgn3R5ZbU_Px_bLlGQ4ZctgIyREY_9oem8btB7hlQBJYT78u6EoR4UGtZOq-zX1QuDSlZWQ4qMCkjCbp-GijR4BQ4ooRh0TGl5ot530bu6p08eEjG0ha3zuIUIZckyBtJCkiAKGR4ribLZ-3zWdaFlb5LaynNLOW-dTNiUsrE29gVyoRyH36sX-eD7w-CXCV4BTtjRP99JbxM4DR00_K_3EAtmSF40W6gPq3QypdiyNwXmGb21OHL6eb-oZmMiAjofyWBd7k5BW1KOlagim9f8YrAHA8r1xUSOTJUnm0yAk4kJihVAnPPjhcDPkg_cOjmgvhlL0rR__mJoHcsIpBgv-ysNZAmWynOYS6nSAa-QddA21lQSV?></g></svg>