<?plantuml 1.2026.2?><svg xmlns="http://www.w3.org/2000/svg" xmlns:xlink="http://www.w3.org/1999/xlink" contentStyleType="text/css" data-diagram-type="DESCRIPTION" height="281px" preserveAspectRatio="none" style="width:1278px;height:281px;background:#FFFFFF;" version="1.1" viewBox="0 0 1278 281" width="1278px" zoomAndPan="magnify"><title>execution-service.ts - Architecture</title><defs/><g><g class="title" data-source-line="1"><text fill="#000000" font-family="sans-serif" font-size="14" font-weight="bold" lengthAdjust="spacing" textLength="229.5303" x="517.4849" y="24.5332">execution-service.ts - Architecture</text></g><!--cluster Runtime Executor--><g class="cluster" data-qualified-name="Runtime Executor" data-source-line="5" id="ent0002"><path d="M691,44.6094 L811.7998,44.6094 A3.75,3.75 0 0 1 814.2998,47.1094 L821.2998,68.2188 L821,68.2188 A2.5,2.5 0 0 1 823.5,70.7188 L823.5,132.1094 A2.5,2.5 0 0 1 821,134.6094 L691,134.6094 A2.5,2.5 0 0 1 688.5,132.1094 L688.5,47.1094 A2.5,2.5 0 0 1 691,44.6094" fill="none" style="stroke:#000000;stroke-width:1.5;"/><line style="stroke:#000000;stroke-width:1.5;" x1="688.5" x2="821.2998" y1="68.2188" y2="68.2188"/><text fill="#000000" font-family="sans-serif" font-size="14" font-weight="bold" lengthAdjust="spacing" textLength="119.7998" x="692.5" y="61.1426">Runtime Executor</text></g><!--cluster Key Collaborators--><g class="cluster" data-qualified-name="Key Collaborators" data-source-line="9" id="ent0004"><path d="M393,184.6094 L514.5859,184.6094 A3.75,3.75 0 0 1 517.0859,187.1094 L524.0859,208.2188 L1269,208.2188 A2.5,2.5 0 0 1 1271.5,210.7188 L1271.5,272.1094 A2.5,2.5 0 0 1 1269,274.6094 L393,274.6094 A2.5,2.5 0 0 1 390.5,272.1094 L390.5,187.1094 A2.5,2.5 0 0 1 393,184.6094" fill="none" style="stroke:#000000;stroke-width:1.5;"/><line style="stroke:#000000;stroke-width:1.5;" x1="390.5" x2="524.0859" y1="208.2188" y2="208.2188"/><text fill="#000000" font-family="sans-serif" font-size="14" font-weight="bold" lengthAdjust="spacing" textLength="120.5859" x="394.5" y="201.1426">Key Collaborators</text></g><!--entity entrypoint--><g class="entity" data-qualified-name="Runtime Executor.entrypoint" data-source-line="6" id="ent0003"><rect fill="#F1F1F1" height="37.6094" rx="2.5" ry="2.5" style="stroke:#181818;stroke-width:0.5;" width="94.7168" x="708" y="80.6094"/><text fill="#000000" font-family="sans-serif" font-size="14" lengthAdjust="spacing" textLength="74.7168" x="718" y="105.1426">executeRun</text></g><!--entity dep_a--><g class="entity" data-qualified-name="Key Collaborators.dep_a" data-source-line="10" id="ent0005"><rect fill="#F1F1F1" height="37.6094" rx="2.5" ry="2.5" style="stroke:#181818;stroke-width:0.5;" width="213.7168" x="406.5" y="220.6094"/><text fill="#000000" font-family="sans-serif" font-size="14" lengthAdjust="spacing" textLength="193.7168" x="416.5" y="245.1426">PrismaWorkflowRunRepository</text></g><!--entity dep_b--><g class="entity" data-qualified-name="Key Collaborators.dep_b" data-source-line="11" id="ent0006"><rect fill="#F1F1F1" height="37.6094" rx="2.5" ry="2.5" style="stroke:#181818;stroke-width:0.5;" width="198.9443" x="656" y="220.6094"/><text fill="#000000" font-family="sans-serif" font-size="14" lengthAdjust="spacing" textLength="178.9443" x="666" y="245.1426">RedisWorkflowRuntimeStore</text></g><!--entity dep_c--><g class="entity" data-qualified-name="Key Collaborators.dep_c" data-source-line="12" id="ent0007"><rect fill="#F1F1F1" height="37.6094" rx="2.5" ry="2.5" style="stroke:#181818;stroke-width:0.5;" width="167.8135" x="890.5" y="220.6094"/><text fill="#000000" font-family="sans-serif" font-size="14" lengthAdjust="spacing" textLength="147.8135" x="900.5" y="245.1426">WorkflowGraphRegistry</text></g><!--entity dep_d--><g class="entity" data-qualified-name="Key Collaborators.dep_d" data-source-line="13" id="ent0008"><rect fill="#F1F1F1" height="37.6094" rx="2.5" ry="2.5" style="stroke:#181818;stroke-width:0.5;" width="162.3857" x="1093.5" y="220.6094"/><text fill="#000000" font-family="sans-serif" font-size="14" lengthAdjust="spacing" textLength="142.3857" x="1103.5" y="245.1426">WorkflowGraphRunner</text></g><g class="entity" data-qualified-name="GMN13" data-source-line="22" id="ent0014"><path d="M6,218.1094 L6,260.8125 L370.9097,260.8125 L370.9097,228.1094 L360.9097,218.1094 L6,218.1094" fill="#FEFFDD" style="stroke:#181818;stroke-width:0.5;"/><path d="M360.9097,218.1094 L360.9097,228.1094 L370.9097,228.1094 L360.9097,218.1094" fill="#FEFFDD" style="stroke:#181818;stroke-width:1;"/><text fill="#000000" font-family="sans-serif" font-size="13" lengthAdjust="spacing" textLength="343.9097" x="12" y="236.6045">Source: src/server/application/workflow/execution-service.ts</text><text fill="#000000" font-family="sans-serif" font-size="13" lengthAdjust="spacing" textLength="301.3042" x="12" y="252.9561">Focus: claim, recover, execute, pause, cancel, finish</text></g><!--link entrypoint to dep_a--><g class="link" data-entity-1="ent0003" data-entity-2="ent0005" data-link-type="dependency" data-source-line="16" id="lnk9"><path d="M707.89,112.8494 C679.87,121.1894 644.38,133.7894 615.5,150.6094 C582.15,170.0294 553.6096,196.6843 534.5496,216.2243" fill="none" id="entrypoint-to-dep_a" style="stroke:#181818;stroke-width:1;"/><polygon fill="#181818" points="530.36,220.5194,539.5077,216.8698,533.8513,216.9402,533.781,211.2837,530.36,220.5194" style="stroke:#181818;stroke-width:1;"/><text fill="#000000" font-family="sans-serif" font-size="13" lengthAdjust="spacing" textLength="130.8125" x="616.5" y="165.1045">read / update run state</text></g><!--link entrypoint to dep_b--><g class="link" data-entity-1="ent0003" data-entity-2="ent0006" data-link-type="dependency" data-source-line="17" id="lnk10"><path d="M755.5,118.6494 C755.5,145.0994 755.5,188.1094 755.5,214.5594" fill="none" id="entrypoint-to-dep_b" style="stroke:#181818;stroke-width:1;"/><polygon fill="#181818" points="755.5,220.5594,759.5,211.5594,755.5,215.5594,751.5,211.5594,755.5,220.5594" style="stroke:#181818;stroke-width:1;"/><text fill="#000000" font-family="sans-serif" font-size="13" lengthAdjust="spacing" textLength="128.6353" x="756.5" y="165.1045">load / save checkpoint</text></g><!--link entrypoint to dep_c--><g class="link" data-entity-1="ent0003" data-entity-2="ent0007" data-link-type="dependency" data-source-line="18" id="lnk11"><path d="M803.16,111.7794 C831.04,119.7494 866.03,132.3294 893.5,150.6094 C922.02,169.5894 943.8801,195.8222 958.3301,215.5122" fill="none" id="entrypoint-to-dep_c" style="stroke:#181818;stroke-width:1;"/><polygon fill="#181818" points="961.88,220.3494,959.78,210.727,958.9218,216.3184,953.3304,215.4602,961.88,220.3494" style="stroke:#181818;stroke-width:1;"/><text fill="#000000" font-family="sans-serif" font-size="13" lengthAdjust="spacing" textLength="78.7681" x="914.5" y="165.1045">resolve graph</text></g><!--link entrypoint to dep_d--><g class="link" data-entity-1="ent0003" data-entity-2="ent0008" data-link-type="dependency" data-source-line="19" id="lnk12"><path d="M803.07,105.3894 C867.69,113.2894 985.56,132.8094 1076.5,176.6094 C1102.44,189.0994 1125.0496,203.5701 1144.2996,216.9201" fill="none" id="entrypoint-to-dep_d" style="stroke:#181818;stroke-width:1;"/><polygon fill="#181818" points="1149.23,220.3394,1144.1139,211.9236,1145.1213,217.49,1139.5549,218.4974,1149.23,220.3394" style="stroke:#181818;stroke-width:1;"/><text fill="#000000" font-family="sans-serif" font-size="13" lengthAdjust="spacing" textLength="149.5952" x="1052.5" y="165.1045">execute nodes with hooks</text></g><!--link entrypoint to GMN13--><g class="link" data-entity-1="ent0003" data-entity-2="ent0014" data-link-type="association" data-source-line="22" id="lnk15"><path d="M707.93,109.0594 C637.95,121.8194 503.34,147.6094 390.5,176.6094 C343.07,188.7994 290.17,205.1394 250.41,217.9794" fill="none" id="entrypoint-GMN13" style="stroke:#181818;stroke-width:1;stroke-dasharray:7,7;"/></g><?plantuml-src VPAzRkim38LtFmMHEQdt30MAeht3NOfaw5Wm56CJbaL1b986HT-zSj8V5pUuamJfEqU75BDapy2lJ2MBXfLnEWZnJJPOmLsYNZ9JBeaR6oH4J3Y2zUZqAA63FNgRtv2EKGE7lCsdQfkg54FdkMaYqe0Tms9JGfQHuU7yfAO5l3Nm8uJ59GjNRW5eKC_IAQg4tBpFRFxo2UxLUznfmcfZ__Wy9R4HdpKDUw_7QhVXg2QLFPsD7SSN_2tPi1ERAQQWsohWRy7kj-2B_PCmzXlknFBCdVu7bn0uVQDkAkwdL5YjRYy1OLsxY0vQAD5XhZqj0IpNtJLyLt6lPzpmm40zqt1ftXMQpkQclfBT5EeQv2hq-IKGrB71KN8FlUfWJHEq7kyqPnr1z_FFscf9n6kmHEqqL9nQZD4BuJHdxV6p6UsrqMiUbOgjWJpAk9p6IAj--PLZ2H6BrOKm4Fibx2M8JUaTJ84-0000?></g></svg>