<?plantuml 1.2026.2?><svg xmlns="http://www.w3.org/2000/svg" xmlns:xlink="http://www.w3.org/1999/xlink" contentStyleType="text/css" data-diagram-type="DESCRIPTION" height="281px" preserveAspectRatio="none" style="width:1188px;height:281px;background:#FFFFFF;" version="1.1" viewBox="0 0 1188 281" width="1188px" zoomAndPan="magnify"><title>command-service.ts - Architecture</title><defs/><g><g class="title" data-source-line="1"><text fill="#000000" font-family="sans-serif" font-size="14" font-weight="bold" lengthAdjust="spacing" textLength="230.3027" x="471.8486" y="24.5332">command-service.ts - Architecture</text></g><!--cluster Application Service--><g class="cluster" data-qualified-name="Application Service" data-source-line="5" id="ent0002"><path d="M564.5,44.6094 L695.4307,44.6094 A3.75,3.75 0 0 1 697.9307,47.1094 L704.9307,68.2188 L704.5,68.2188 A2.5,2.5 0 0 1 707,70.7188 L707,132.1094 A2.5,2.5 0 0 1 704.5,134.6094 L564.5,134.6094 A2.5,2.5 0 0 1 562,132.1094 L562,47.1094 A2.5,2.5 0 0 1 564.5,44.6094" fill="none" style="stroke:#000000;stroke-width:1.5;"/><line style="stroke:#000000;stroke-width:1.5;" x1="562" x2="704.9307" y1="68.2188" y2="68.2188"/><text fill="#000000" font-family="sans-serif" font-size="14" font-weight="bold" lengthAdjust="spacing" textLength="129.9307" x="566" y="61.1426">Application Service</text></g><!--cluster Key Collaborators--><g class="cluster" data-qualified-name="Key Collaborators" data-source-line="9" id="ent0004"><path d="M393.5,184.6094 L515.0859,184.6094 A3.75,3.75 0 0 1 517.5859,187.1094 L524.5859,208.2188 L1178.5,208.2188 A2.5,2.5 0 0 1 1181,210.7188 L1181,272.1094 A2.5,2.5 0 0 1 1178.5,274.6094 L393.5,274.6094 A2.5,2.5 0 0 1 391,272.1094 L391,187.1094 A2.5,2.5 0 0 1 393.5,184.6094" fill="none" style="stroke:#000000;stroke-width:1.5;"/><line style="stroke:#000000;stroke-width:1.5;" x1="391" x2="524.5859" y1="208.2188" y2="208.2188"/><text fill="#000000" font-family="sans-serif" font-size="14" font-weight="bold" lengthAdjust="spacing" textLength="120.5859" x="395" y="201.1426">Key Collaborators</text></g><!--entity entrypoint--><g class="entity" data-qualified-name="Application Service.entrypoint" data-source-line="6" id="ent0003"><rect fill="#F1F1F1" height="37.6094" rx="2.5" ry="2.5" style="stroke:#181818;stroke-width:0.5;" width="104.7861" x="581.5" y="80.6094"/><text fill="#000000" font-family="sans-serif" font-size="14" lengthAdjust="spacing" textLength="84.7861" x="591.5" y="105.1426">startWorkflow</text></g><!--entity dep_a--><g class="entity" data-qualified-name="Key Collaborators.dep_a" data-source-line="10" id="ent0005"><rect fill="#F1F1F1" height="37.6094" rx="2.5" ry="2.5" style="stroke:#181818;stroke-width:0.5;" width="213.7168" x="407" y="220.6094"/><text fill="#000000" font-family="sans-serif" font-size="14" lengthAdjust="spacing" textLength="193.7168" x="417" y="245.1426">PrismaWorkflowRunRepository</text></g><!--entity dep_b--><g class="entity" data-qualified-name="Key Collaborators.dep_b" data-source-line="11" id="ent0006"><rect fill="#F1F1F1" height="37.6094" rx="2.5" ry="2.5" style="stroke:#181818;stroke-width:0.5;" width="198.9443" x="656.5" y="220.6094"/><text fill="#000000" font-family="sans-serif" font-size="14" lengthAdjust="spacing" textLength="178.9443" x="666.5" y="245.1426">RedisWorkflowRuntimeStore</text></g><!--entity dep_c--><g class="entity" data-qualified-name="Key Collaborators.dep_c" data-source-line="12" id="ent0007"><rect fill="#F1F1F1" height="37.6094" rx="2.5" ry="2.5" style="stroke:#181818;stroke-width:0.5;" width="273.6543" x="891" y="220.6094"/><text fill="#000000" font-family="sans-serif" font-size="14" lengthAdjust="spacing" textLength="253.6543" x="901" y="245.1426">getWorkflowNodeKeysFromGraphConfig</text></g><g class="entity" data-qualified-name="GMN11" data-source-line="20" id="ent0012"><path d="M6,218.1094 L6,260.8125 A0,0 0 0 0 6,260.8125 L372.3379,260.8125 A0,0 0 0 0 372.3379,260.8125 L372.3379,228.1094 L362.3379,218.1094 L259.47,218.1094 L581.21,116.9794 L251.47,218.1094 L6,218.1094 A0,0 0 0 0 6,218.1094" fill="#FEFFDD" style="stroke:#181818;stroke-width:0.5;"/><path d="M362.3379,218.1094 L362.3379,228.1094 L372.3379,228.1094 L362.3379,218.1094" fill="#FEFFDD" style="stroke:#181818;stroke-width:0.5;"/><text fill="#000000" font-family="sans-serif" font-size="13" lengthAdjust="spacing" textLength="345.3379" x="12" y="236.6045">Source: src/server/application/workflow/command-service.ts</text><text fill="#000000" font-family="sans-serif" font-size="13" lengthAdjust="spacing" textLength="296.9814" x="12" y="252.9561">Focus: idempotency, template fallback, run creation</text></g><!--link entrypoint to dep_a--><g class="link" data-entity-1="ent0003" data-entity-2="ent0005" data-link-type="dependency" data-source-line="15" id="lnk8"><path d="M592.08,118.6494 C577.24,126.6894 561.41,137.3694 550,150.6094 C532.44,170.9994 524.1066,195.2789 519.3066,214.4589" fill="none" id="entrypoint-to-dep_a" style="stroke:#181818;stroke-width:1;"/><polygon fill="#181818" points="517.85,220.2794,523.9153,212.5197,519.0639,215.429,516.1546,210.5775,517.85,220.2794" style="stroke:#181818;stroke-width:1;"/><text fill="#000000" font-family="sans-serif" font-size="13" lengthAdjust="spacing" textLength="147.418" x="551" y="165.1045">load template / create run</text></g><!--link entrypoint to dep_c--><g class="link" data-entity-1="ent0003" data-entity-2="ent0007" data-link-type="dependency" data-source-line="16" id="lnk9"><path d="M686.71,103.7394 C742.37,108.5394 831.75,120.6094 903,150.6094 C943.85,167.8094 980.0696,196.0855 1003.4596,216.3955" fill="none" id="entrypoint-to-dep_c" style="stroke:#181818;stroke-width:1;"/><polygon fill="#181818" points="1007.99,220.3294,1003.8169,211.4083,1004.2146,217.0512,998.5718,217.4489,1007.99,220.3294" style="stroke:#181818;stroke-width:1;"/><text fill="#000000" font-family="sans-serif" font-size="13" lengthAdjust="spacing" textLength="101.8862" x="937" y="165.1045">extract node keys</text></g><!--link entrypoint to dep_b--><g class="link" data-entity-1="ent0003" data-entity-2="ent0006" data-link-type="dependency" data-source-line="17" id="lnk10"><path d="M664.3,118.6894 C677.18,127.3094 691.79,138.4094 703,150.6094 C722.54,171.8894 735.9633,196.08 745.1033,214.94" fill="none" id="entrypoint-to-dep_b" style="stroke:#181818;stroke-width:1;"/><polygon fill="#181818" points="747.72,220.3394,747.3946,210.4959,745.5395,215.8399,740.1954,213.9848,747.72,220.3394" style="stroke:#181818;stroke-width:1;"/><text fill="#000000" font-family="sans-serif" font-size="13" lengthAdjust="spacing" textLength="176.3252" x="718" y="165.1045">publish latest event on resume</text></g><?plantuml-src RP91JoCn38NlyokidblctWCIGe834aBjWUFAat6dKPCuiZrqHuZ_lfujj4LmYn9_p-_5jcY9873EMFgLahp5G3Uci88x2Vje56mKQlGGIqN13Bh7de-n3B33fDSlhbAvKB6jJIugZc8P4ZLDnN30WM1nLskA0IroWUsfsGBU6xYmi513iLUMmoxnSG6euDSoLOx5ceyhiIUQu9vJmeu5ZKL_IBr8r8nVMfknRAYoHg-T_WltLF_WTsH3VTGhmcAchGDq1hhlm41diy_SavlI1-7yA5ZtzrnsSJYJORP_2GEhrUt90gmXCVPWb6j28sWX2Cq76SjlH722_ffWC2ZU5GxUzhV2pWlhsAMeUvYLrO3UPjy-024Tiq-di3Vgs8mpyExwjxSyIg0rg8HstWsI5YyJR8-VkTkV-zCyS1Xr3R7tIAvVmhIynFFDIPsFSJddEqLrFVVVmspc7m00?></g></svg>