<?plantuml 1.2026.2?><svg xmlns="http://www.w3.org/2000/svg" xmlns:xlink="http://www.w3.org/1999/xlink" contentStyleType="text/css" data-diagram-type="STATE" height="520px" preserveAspectRatio="none" style="width:312px;height:520px;background:#FFFFFF;" version="1.1" viewBox="0 0 312 520" width="312px" zoomAndPan="magnify"><title>quick-research-graph.ts - &#29366;&#24577;&#22270;</title><defs/><g><g class="title" data-source-line="1"><text fill="#000000" font-family="sans-serif" font-size="14" font-weight="bold" lengthAdjust="spacing" textLength="215.25" x="41.6016" y="24.5332">quick-research-graph.ts - &#29366;&#24577;&#22270;</text></g><g class="start_entity" data-qualified-name=".start." data-source-line="2" id="ent0002"><ellipse cx="139.75" cy="54.6094" fill="#222222" rx="10" ry="10" style="stroke:#222222;stroke-width:1;"/></g><g class="entity" data-qualified-name="Initial" id="ent0003"><rect fill="#F1F1F1" height="50" rx="12.5" ry="12.5" style="stroke:#181818;stroke-width:0.5;" width="52.6826" x="113.25" y="125.6094"/><line style="stroke:#181818;stroke-width:0.5;" x1="113.25" x2="165.9326" y1="153.2188" y2="153.2188"/><text fill="#000000" font-family="sans-serif" font-size="14" lengthAdjust="spacing" textLength="32.6826" x="123.25" y="145.1426">Initial</text></g><g class="entity" data-qualified-name="Active" id="ent0005"><rect fill="#F1F1F1" height="50" rx="12.5" ry="12.5" style="stroke:#181818;stroke-width:0.5;" width="58.124" x="110.75" y="253.6094"/><line style="stroke:#181818;stroke-width:0.5;" x1="110.75" x2="168.874" y1="281.2188" y2="281.2188"/><text fill="#000000" font-family="sans-serif" font-size="14" lengthAdjust="spacing" textLength="38.124" x="120.75" y="273.1426">Active</text></g><g class="entity" data-qualified-name="Waiting" id="ent0007"><rect fill="#F1F1F1" height="50" rx="12.5" ry="12.5" style="stroke:#181818;stroke-width:0.5;" width="66.6826" x="47.25" y="381.6094"/><line style="stroke:#181818;stroke-width:0.5;" x1="47.25" x2="113.9326" y1="409.2188" y2="409.2188"/><text fill="#000000" font-family="sans-serif" font-size="14" lengthAdjust="spacing" textLength="46.6826" x="57.25" y="401.1426">Waiting</text></g><g class="entity" data-qualified-name="Completed" id="ent0010"><rect fill="#F1F1F1" height="50" rx="12.5" ry="12.5" style="stroke:#181818;stroke-width:0.5;" width="87.7031" x="217.75" y="381.6094"/><line style="stroke:#181818;stroke-width:0.5;" x1="217.75" x2="305.4531" y1="409.2188" y2="409.2188"/><text fill="#000000" font-family="sans-serif" font-size="14" lengthAdjust="spacing" textLength="67.7031" x="227.75" y="401.1426">Completed</text></g><g class="end_entity" data-qualified-name=".end." data-source-line="7" id="ent0012"><ellipse cx="261.75" cy="503.6094" fill="none" rx="11" ry="11" style="stroke:#222222;stroke-width:1;"/><ellipse cx="261.75" cy="503.6094" fill="#222222" rx="6" ry="6" style="stroke:#222222;stroke-width:1;"/></g><!--link *start* to Initial--><g class="link" data-entity-1="ent0002" data-entity-2="ent0003" data-link-type="dependency" data-source-line="2" id="lnk4"><path d="M139.75,64.6194 C139.75,78.4994 139.75,99.5794 139.75,119.4494" fill="none" id="*start*-to-Initial" style="stroke:#181818;stroke-width:1;"/><polygon fill="#181818" points="139.75,125.4494,143.75,116.4494,139.75,120.4494,135.75,116.4494,139.75,125.4494" style="stroke:#181818;stroke-width:1;"/></g><!--link Initial to Active--><g class="link" data-entity-1="ent0003" data-entity-2="ent0005" data-link-type="dependency" data-source-line="3" id="lnk6"><path d="M139.75,175.8994 C139.75,198.2194 139.75,225.0994 139.75,247.3894" fill="none" id="Initial-to-Active" style="stroke:#181818;stroke-width:1;"/><polygon fill="#181818" points="139.75,253.3894,143.75,244.3894,139.75,248.3894,135.75,244.3894,139.75,253.3894" style="stroke:#181818;stroke-width:1;"/><text fill="#000000" font-family="sans-serif" font-size="13" lengthAdjust="spacing" textLength="80.9199" x="140.75" y="220.1045">start / activate</text></g><!--link Active to Waiting--><g class="link" data-entity-1="ent0005" data-entity-2="ent0007" data-link-type="dependency" data-source-line="4" id="lnk8"><path d="M110.72,283.5094 C81.83,289.1094 38.97,302.4394 18.75,333.6094 C6,353.2594 21.4866,369.9179 42.2466,383.8379" fill="none" id="Active-to-Waiting" style="stroke:#181818;stroke-width:1;"/><polygon fill="#181818" points="47.23,387.1794,41.9825,378.8449,43.0771,384.3948,37.5272,385.4894,47.23,387.1794" style="stroke:#181818;stroke-width:1;"/><text fill="#000000" font-family="sans-serif" font-size="13" lengthAdjust="spacing" textLength="76.6035" x="19.75" y="348.1045">pause / await</text></g><!--link Waiting to Active--><g class="link" data-entity-1="ent0007" data-entity-2="ent0005" data-link-type="dependency" data-source-line="5" id="lnk9"><path d="M92.09,381.3894 C102.53,359.0994 115.3759,331.6533 125.8259,309.3333" fill="none" id="Waiting-to-Active" style="stroke:#181818;stroke-width:1;"/><polygon fill="#181818" points="128.37,303.8994,120.9312,310.3542,126.2499,308.4276,128.1765,313.7463,128.37,303.8994" style="stroke:#181818;stroke-width:1;"/><text fill="#000000" font-family="sans-serif" font-size="13" lengthAdjust="spacing" textLength="80.1836" x="115.75" y="348.1045">resume / retry</text></g><!--link Active to Completed--><g class="link" data-entity-1="ent0005" data-entity-2="ent0010" data-link-type="dependency" data-source-line="6" id="lnk11"><path d="M169.03,301.7794 C180.63,311.0994 193.78,322.3794 204.75,333.6094 C219.34,348.5494 230.3561,362.2299 241.1161,376.7399" fill="none" id="Active-to-Completed" style="stroke:#181818;stroke-width:1;"/><polygon fill="#181818" points="244.69,381.5594,242.5421,371.9476,241.7117,377.5432,236.1162,376.7128,244.69,381.5594" style="stroke:#181818;stroke-width:1;"/><text fill="#000000" font-family="sans-serif" font-size="13" lengthAdjust="spacing" textLength="65.7554" x="221.75" y="348.1045">finish / stop</text></g><!--link Completed to *end*--><g class="link" data-entity-1="ent0010" data-entity-2="ent0012" data-link-type="dependency" data-source-line="7" id="lnk13"><path d="M261.75,432.0694 C261.75,451.6494 261.75,472.0994 261.75,486.4094" fill="none" id="Completed-to-*end*" style="stroke:#181818;stroke-width:1;"/><polygon fill="#181818" points="261.75,492.4094,265.75,483.4094,261.75,487.4094,257.75,483.4094,261.75,492.4094" style="stroke:#181818;stroke-width:1;"/></g><?plantuml-src LOun3i8m34NtdC8pKc1dG49Cd801CLZ5j1Pj6XAdY0rMhi0z6BaDS0qSL0HCbjv__lh2KXFi4XTR6oWIXgAoPK1V3IM2XUVv-ZYUxfURMGvMOEq4vew5iJRzVRDf8TmHZ24A1e4HO0OePFeaImlK1rUgvJ55ojPUaVdmloBTafhi199m-AsPjOslIMYjreOTnqgjAAqttoHxklS5?></g></svg>