<?plantuml 1.2026.2?><svg xmlns="http://www.w3.org/2000/svg" xmlns:xlink="http://www.w3.org/1999/xlink" contentStyleType="text/css" data-diagram-type="DESCRIPTION" height="281px" preserveAspectRatio="none" style="width:942px;height:281px;background:#FFFFFF;" version="1.1" viewBox="0 0 942 281" width="942px" zoomAndPan="magnify"><title>workflow.ts - Architecture</title><defs/><g><g class="title" data-source-line="1"><text fill="#000000" font-family="sans-serif" font-size="14" font-weight="bold" lengthAdjust="spacing" textLength="171.917" x="378.2915" y="24.5332">workflow.ts - Architecture</text></g><!--cluster Entry Layer--><g class="cluster" data-qualified-name="Entry Layer" data-source-line="5" id="ent0002"><path d="M437,44.6094 L515.0342,44.6094 A3.75,3.75 0 0 1 517.5342,47.1094 L524.5342,68.2188 L608,68.2188 A2.5,2.5 0 0 1 610.5,70.7188 L610.5,132.1094 A2.5,2.5 0 0 1 608,134.6094 L437,134.6094 A2.5,2.5 0 0 1 434.5,132.1094 L434.5,47.1094 A2.5,2.5 0 0 1 437,44.6094" fill="none" style="stroke:#000000;stroke-width:1.5;"/><line style="stroke:#000000;stroke-width:1.5;" x1="434.5" x2="524.5342" y1="68.2188" y2="68.2188"/><text fill="#000000" font-family="sans-serif" font-size="14" font-weight="bold" lengthAdjust="spacing" textLength="77.0342" x="438.5" y="61.1426">Entry Layer</text></g><!--cluster Key Collaborators--><g class="cluster" data-qualified-name="Key Collaborators" data-source-line="9" id="ent0004"><path d="M296,184.6094 L417.5859,184.6094 A3.75,3.75 0 0 1 420.0859,187.1094 L427.0859,208.2188 L933,208.2188 A2.5,2.5 0 0 1 935.5,210.7188 L935.5,272.1094 A2.5,2.5 0 0 1 933,274.6094 L296,274.6094 A2.5,2.5 0 0 1 293.5,272.1094 L293.5,187.1094 A2.5,2.5 0 0 1 296,184.6094" fill="none" style="stroke:#000000;stroke-width:1.5;"/><line style="stroke:#000000;stroke-width:1.5;" x1="293.5" x2="427.0859" y1="208.2188" y2="208.2188"/><text fill="#000000" font-family="sans-serif" font-size="14" font-weight="bold" lengthAdjust="spacing" textLength="120.5859" x="297.5" y="201.1426">Key Collaborators</text></g><!--entity entrypoint--><g class="entity" data-qualified-name="Entry Layer.entrypoint" data-source-line="6" id="ent0003"><rect fill="#F1F1F1" height="37.6094" rx="2.5" ry="2.5" style="stroke:#181818;stroke-width:0.5;" width="142.9307" x="451" y="80.6094"/><text fill="#000000" font-family="sans-serif" font-size="14" lengthAdjust="spacing" textLength="122.9307" x="461" y="105.1426">startQuickResearch</text></g><!--entity dep_a--><g class="entity" data-qualified-name="Key Collaborators.dep_a" data-source-line="10" id="ent0005"><rect fill="#F1F1F1" height="37.6094" rx="2.5" ry="2.5" style="stroke:#181818;stroke-width:0.5;" width="188.8203" x="310" y="220.6094"/><text fill="#000000" font-family="sans-serif" font-size="14" lengthAdjust="spacing" textLength="168.8203" x="320" y="245.1426">WorkflowCommandService</text></g><!--entity dep_b--><g class="entity" data-qualified-name="Key Collaborators.dep_b" data-source-line="11" id="ent0006"><rect fill="#F1F1F1" height="37.6094" rx="2.5" ry="2.5" style="stroke:#181818;stroke-width:0.5;" width="213.7168" x="534.5" y="220.6094"/><text fill="#000000" font-family="sans-serif" font-size="14" lengthAdjust="spacing" textLength="193.7168" x="544.5" y="245.1426">PrismaWorkflowRunRepository</text></g><!--entity dep_c--><g class="entity" data-qualified-name="Key Collaborators.dep_c" data-source-line="12" id="ent0007"><rect fill="#F1F1F1" height="37.6094" rx="2.5" ry="2.5" style="stroke:#181818;stroke-width:0.5;" width="135.9033" x="783.5" y="220.6094"/><text fill="#000000" font-family="sans-serif" font-size="14" lengthAdjust="spacing" textLength="115.9033" x="793.5" y="245.1426">mapWorkflowError</text></g><g class="entity" data-qualified-name="GMN11" data-source-line="20" id="ent0012"><path d="M6,218.1094 L6,260.8125 L274.8442,260.8125 L274.8442,228.1094 L264.8442,218.1094 L6,218.1094" fill="#FEFFDD" style="stroke:#181818;stroke-width:0.5;"/><path d="M264.8442,218.1094 L264.8442,228.1094 L274.8442,228.1094 L264.8442,218.1094" fill="#FEFFDD" style="stroke:#181818;stroke-width:1;"/><text fill="#000000" font-family="sans-serif" font-size="13" lengthAdjust="spacing" textLength="238.4053" x="12" y="236.6045">Source: src/server/api/routers/workflow.ts</text><text fill="#000000" font-family="sans-serif" font-size="13" lengthAdjust="spacing" textLength="247.8442" x="12" y="252.9561">Focus: auth, input validation, service wiring</text></g><!--link entrypoint to dep_b--><g class="link" data-entity-1="ent0003" data-entity-2="ent0006" data-link-type="dependency" data-source-line="15" id="lnk8"><path d="M546.31,118.8294 C557.31,127.8094 570.18,139.1494 580.5,150.6094 C600.52,172.8594 616.3616,196.8095 627.6716,215.3195" fill="none" id="entrypoint-to-dep_b" style="stroke:#181818;stroke-width:1;"/><polygon fill="#181818" points="630.8,220.4394,629.5207,210.674,628.193,216.1728,622.6942,214.8451,630.8,220.4394" style="stroke:#181818;stroke-width:1;"/><text fill="#000000" font-family="sans-serif" font-size="13" lengthAdjust="spacing" textLength="96.8208" x="594.5" y="165.1045">create repository</text></g><!--link entrypoint to dep_a--><g class="link" data-entity-1="ent0003" data-entity-2="ent0005" data-link-type="dependency" data-source-line="16" id="lnk9"><path d="M498.65,118.7894 C487.64,127.7594 474.77,139.1094 464.5,150.6094 C444.67,172.8194 429.1325,196.7517 418.0425,215.2717" fill="none" id="entrypoint-to-dep_a" style="stroke:#181818;stroke-width:1;"/><polygon fill="#181818" points="414.96,220.4194,423.0155,214.7529,417.5287,216.1297,416.1519,210.6429,414.96,220.4194" style="stroke:#181818;stroke-width:1;"/><text fill="#000000" font-family="sans-serif" font-size="13" lengthAdjust="spacing" textLength="110.5698" x="465.5" y="165.1045">delegate command</text></g><!--link entrypoint to dep_c--><g class="link" data-entity-1="ent0003" data-entity-2="ent0007" data-link-type="dependency" data-source-line="17" id="lnk10"><path d="M594.09,114.9994 C644.37,126.9494 712.09,146.8694 766.5,176.6094 C789.42,189.1394 808.5877,203.2451 825.1577,216.5951" fill="none" id="entrypoint-to-dep_c" style="stroke:#181818;stroke-width:1;"/><polygon fill="#181818" points="829.83,220.3594,825.3312,211.5981,825.9365,217.2225,820.3121,217.8277,829.83,220.3594" style="stroke:#181818;stroke-width:1;"/><text fill="#000000" font-family="sans-serif" font-size="13" lengthAdjust="spacing" textLength="101.8735" x="748.5" y="165.1045">normalize failures</text></g><!--link entrypoint to GMN11--><g class="link" data-entity-1="ent0003" data-entity-2="ent0012" data-link-type="association" data-source-line="20" id="lnk13"><path d="M464.74,118.6394 C418.22,133.4394 351.29,155.3394 293.5,176.6094 C258.27,189.5794 219.03,205.5094 189.11,217.9794" fill="none" id="entrypoint-GMN11" style="stroke:#181818;stroke-width:1;stroke-dasharray:7,7;"/></g><?plantuml-src RP8nJmCn38Nt_0hhvfRk7P1GLHOOe1qOaPjphz7buiXnUZeG_vqSfUrLCETzpo_FLgUUe6TfzvxxEqqmXmUn1wTaDGkPrBeGKR23TC2QUnSQsADFqnVBNUH0GRSw53SfA8R6ap4HROiDGRKEAWCyuq1ImQU1AmDLKXHzpSws6qg4PNe5c8169B8BQhucJayqm8gznnqBAalwu_Vs-viLTns6UajoT9P-F6kAxtYhVX6NEZmpcnms53cvuZnSaDqjqc4ywzSYB1UT7PDUSyDyVd_YOGbM27Kiv-p-dn2Bi2PFpIYrf_p_wMpH1POElVkWiW_dowwICO4BjsDLxe3tqmgtdCNI4fBOHIgDa2mmkeLmLfAqc5o0UMIRqn8mws46PSTPuLW6rQYEmmpIgK_edPHZAEbg6CT-0m00?></g></svg>