<?plantuml 1.2026.2?><svg xmlns="http://www.w3.org/2000/svg" xmlns:xlink="http://www.w3.org/1999/xlink" contentStyleType="text/css" data-diagram-type="ACTIVITY" height="461px" preserveAspectRatio="none" style="width:301px;height:461px;background:#FFFFFF;" version="1.1" viewBox="0 0 301 461" width="301px" zoomAndPan="magnify"><title>quick-research-graph.ts - &#20027;&#27969;&#31243;&#27963;&#21160;&#22270;</title><defs/><g><g class="title" data-source-line="1"><text fill="#000000" font-family="sans-serif" font-size="14" font-weight="bold" lengthAdjust="spacing" textLength="258.5625" x="20" y="34.5332">quick-research-graph.ts - &#20027;&#27969;&#31243;&#27963;&#21160;&#22270;</text></g><ellipse cx="152.9507" cy="58.6094" fill="#222222" rx="10" ry="10" style="stroke:#222222;stroke-width:1;"/><rect fill="#F1F1F1" height="35.0938" rx="12.5" ry="12.5" style="stroke:#181818;stroke-width:0.5;" width="176.75" x="64.5757" y="88.6094"/><text fill="#000000" font-family="sans-serif" font-size="12" lengthAdjust="spacing" textLength="156.75" x="74.5757" y="111.0664">enter toResearchPreferences</text><rect fill="#F1F1F1" height="35.0938" rx="12.5" ry="12.5" style="stroke:#181818;stroke-width:0.5;" width="114.0664" x="95.9175" y="143.7031"/><text fill="#000000" font-family="sans-serif" font-size="12" lengthAdjust="spacing" textLength="94.0664" x="105.9175" y="166.1602">load input/context</text><rect fill="#F1F1F1" height="35.0938" rx="12.5" ry="12.5" style="stroke:#181818;stroke-width:0.5;" width="171.4063" x="67.2476" y="198.7969"/><text fill="#000000" font-family="sans-serif" font-size="12" lengthAdjust="spacing" textLength="151.4063" x="77.2476" y="221.2539">run main orchestration steps</text><polygon fill="#F1F1F1" points="111.0615,253.8906,194.8398,253.8906,206.8398,265.8906,194.8398,277.8906,111.0615,277.8906,99.0615,265.8906,111.0615,253.8906" style="stroke:#181818;stroke-width:0.5;"/><text fill="#000000" font-family="sans-serif" font-size="11" lengthAdjust="spacing" textLength="83.7783" x="111.0615" y="270.3916">guard or branch?</text><text fill="#000000" font-family="sans-serif" font-size="11" lengthAdjust="spacing" textLength="17.1177" x="81.9438" y="263.4736">yes</text><text fill="#000000" font-family="sans-serif" font-size="11" lengthAdjust="spacing" textLength="12.2354" x="206.8398" y="263.4736">no</text><rect fill="#F1F1F1" height="35.0938" rx="12.5" ry="12.5" style="stroke:#181818;stroke-width:0.5;" width="130.0801" x="15.04" y="287.8906"/><text fill="#000000" font-family="sans-serif" font-size="12" lengthAdjust="spacing" textLength="110.0801" x="25.04" y="310.3477">take conditional path</text><rect fill="#F1F1F1" height="35.0938" rx="12.5" ry="12.5" style="stroke:#181818;stroke-width:0.5;" width="121.4023" x="165.1201" y="287.8906"/><text fill="#000000" font-family="sans-serif" font-size="12" lengthAdjust="spacing" textLength="101.4023" x="175.1201" y="310.3477">continue main path</text><polygon fill="#F1F1F1" points="152.9507,328.9844,164.9507,340.9844,152.9507,352.9844,140.9507,340.9844,152.9507,328.9844" style="stroke:#181818;stroke-width:0.5;"/><rect fill="#F1F1F1" height="35.0938" rx="12.5" ry="12.5" style="stroke:#181818;stroke-width:0.5;" width="156.0605" x="74.9204" y="372.9844"/><text fill="#000000" font-family="sans-serif" font-size="12" lengthAdjust="spacing" textLength="136.0605" x="84.9204" y="395.4414">return result or side effect</text><ellipse cx="152.9507" cy="439.0781" fill="none" rx="11" ry="11" style="stroke:#222222;stroke-width:1;"/><ellipse cx="152.9507" cy="439.0781" fill="#222222" rx="6" ry="6" style="stroke:#222222;stroke-width:1;"/><line style="stroke:#181818;stroke-width:1;" x1="152.9507" x2="152.9507" y1="68.6094" y2="88.6094"/><polygon fill="#181818" points="148.9507,78.6094,152.9507,88.6094,156.9507,78.6094,152.9507,82.6094" style="stroke:#181818;stroke-width:1;"/><line style="stroke:#181818;stroke-width:1;" x1="152.9507" x2="152.9507" y1="123.7031" y2="143.7031"/><polygon fill="#181818" points="148.9507,133.7031,152.9507,143.7031,156.9507,133.7031,152.9507,137.7031" style="stroke:#181818;stroke-width:1;"/><line style="stroke:#181818;stroke-width:1;" x1="152.9507" x2="152.9507" y1="178.7969" y2="198.7969"/><polygon fill="#181818" points="148.9507,188.7969,152.9507,198.7969,156.9507,188.7969,152.9507,192.7969" style="stroke:#181818;stroke-width:1;"/><line style="stroke:#181818;stroke-width:1;" x1="99.0615" x2="80.0801" y1="265.8906" y2="265.8906"/><line style="stroke:#181818;stroke-width:1;" x1="80.0801" x2="80.0801" y1="265.8906" y2="287.8906"/><polygon fill="#181818" points="76.0801,277.8906,80.0801,287.8906,84.0801,277.8906,80.0801,281.8906" style="stroke:#181818;stroke-width:1;"/><line style="stroke:#181818;stroke-width:1;" x1="206.8398" x2="225.8213" y1="265.8906" y2="265.8906"/><line style="stroke:#181818;stroke-width:1;" x1="225.8213" x2="225.8213" y1="265.8906" y2="287.8906"/><polygon fill="#181818" points="221.8213,277.8906,225.8213,287.8906,229.8213,277.8906,225.8213,281.8906" style="stroke:#181818;stroke-width:1;"/><line style="stroke:#181818;stroke-width:1;" x1="80.0801" x2="80.0801" y1="322.9844" y2="340.9844"/><line style="stroke:#181818;stroke-width:1;" x1="80.0801" x2="140.9507" y1="340.9844" y2="340.9844"/><polygon fill="#181818" points="130.9507,336.9844,140.9507,340.9844,130.9507,344.9844,134.9507,340.9844" style="stroke:#181818;stroke-width:1;"/><line style="stroke:#181818;stroke-width:1;" x1="225.8213" x2="225.8213" y1="322.9844" y2="340.9844"/><line style="stroke:#181818;stroke-width:1;" x1="225.8213" x2="164.9507" y1="340.9844" y2="340.9844"/><polygon fill="#181818" points="174.9507,336.9844,164.9507,340.9844,174.9507,344.9844,170.9507,340.9844" style="stroke:#181818;stroke-width:1;"/><line style="stroke:#181818;stroke-width:1;" x1="152.9507" x2="152.9507" y1="233.8906" y2="253.8906"/><polygon fill="#181818" points="148.9507,243.8906,152.9507,253.8906,156.9507,243.8906,152.9507,247.8906" style="stroke:#181818;stroke-width:1;"/><line style="stroke:#181818;stroke-width:1;" x1="152.9507" x2="152.9507" y1="352.9844" y2="372.9844"/><polygon fill="#181818" points="148.9507,362.9844,152.9507,372.9844,156.9507,362.9844,152.9507,366.9844" style="stroke:#181818;stroke-width:1;"/><line style="stroke:#181818;stroke-width:1;" x1="152.9507" x2="152.9507" y1="408.0781" y2="428.0781"/><polygon fill="#181818" points="148.9507,418.0781,152.9507,428.0781,156.9507,418.0781,152.9507,422.0781" style="stroke:#181818;stroke-width:1;"/><?plantuml-src BOz1JWCn34NtEOMNqyN0VhhW2eWRcCnF9sfm1iUHof8j7A4Nw06AX5I9qz1o3JBGhVsU_xT5Iw3d6lssLnIm-gdVAC_JZHNgwVlpTFbu_JcyNuwdyzlXlFzonLZD3H23akM7gtMl2528Hrcx8MKUASfSxTRdHkwi3RKAFN4Koer7CMMBMQWOvkR4GDscievjJO_AugUx5Ta4eUu5PUM81kCjg1qSus9oefbjMZka0kea_p5BNfIA_wWhq8pG2i2g2hL7Qx8bfiGHX13WMxzYUVu5?></g></svg>