<?plantuml 1.2026.2?><svg xmlns="http://www.w3.org/2000/svg" xmlns:xlink="http://www.w3.org/1999/xlink" contentStyleType="text/css" data-diagram-type="ACTIVITY" height="461px" preserveAspectRatio="none" style="width:293px;height:461px;background:#FFFFFF;" version="1.1" viewBox="0 0 293 461" width="293px" zoomAndPan="magnify"><title>command-service.ts - &#20027;&#27969;&#31243;&#27963;&#21160;&#22270;</title><defs/><g><g class="title" data-source-line="1"><text fill="#000000" font-family="sans-serif" font-size="14" font-weight="bold" lengthAdjust="spacing" textLength="234.459" x="28.0117" y="34.5332">command-service.ts - &#20027;&#27969;&#31243;&#27963;&#21160;&#22270;</text></g><ellipse cx="148.9106" cy="58.6094" fill="#222222" rx="10" ry="10" style="stroke:#222222;stroke-width:1;"/><rect fill="#F1F1F1" height="35.0938" rx="12.5" ry="12.5" style="stroke:#181818;stroke-width:0.5;" width="107.3867" x="95.2173" y="88.6094"/><text fill="#000000" font-family="sans-serif" font-size="12" lengthAdjust="spacing" textLength="87.3867" x="105.2173" y="111.0664">enter cancelRun</text><rect fill="#F1F1F1" height="35.0938" rx="12.5" ry="12.5" style="stroke:#181818;stroke-width:0.5;" width="114.0664" x="91.8774" y="143.7031"/><text fill="#000000" font-family="sans-serif" font-size="12" lengthAdjust="spacing" textLength="94.0664" x="101.8774" y="166.1602">load input/context</text><rect fill="#F1F1F1" height="35.0938" rx="12.5" ry="12.5" style="stroke:#181818;stroke-width:0.5;" width="171.4063" x="63.2075" y="198.7969"/><text fill="#000000" font-family="sans-serif" font-size="12" lengthAdjust="spacing" textLength="151.4063" x="73.2075" y="221.2539">run main orchestration steps</text><polygon fill="#F1F1F1" points="107.0215,253.8906,190.7998,253.8906,202.7998,265.8906,190.7998,277.8906,107.0215,277.8906,95.0215,265.8906,107.0215,253.8906" style="stroke:#181818;stroke-width:0.5;"/><text fill="#000000" font-family="sans-serif" font-size="11" lengthAdjust="spacing" textLength="83.7783" x="107.0215" y="270.3916">guard or branch?</text><text fill="#000000" font-family="sans-serif" font-size="11" lengthAdjust="spacing" textLength="17.1177" x="77.9038" y="263.4736">yes</text><text fill="#000000" font-family="sans-serif" font-size="11" lengthAdjust="spacing" textLength="12.2354" x="202.7998" y="263.4736">no</text><rect fill="#F1F1F1" height="35.0938" rx="12.5" ry="12.5" style="stroke:#181818;stroke-width:0.5;" width="130.0801" x="11" y="287.8906"/><text fill="#000000" font-family="sans-serif" font-size="12" lengthAdjust="spacing" textLength="110.0801" x="21" y="310.3477">take conditional path</text><rect fill="#F1F1F1" height="35.0938" rx="12.5" ry="12.5" style="stroke:#181818;stroke-width:0.5;" width="121.4023" x="161.0801" y="287.8906"/><text fill="#000000" font-family="sans-serif" font-size="12" lengthAdjust="spacing" textLength="101.4023" x="171.0801" y="310.3477">continue main path</text><polygon fill="#F1F1F1" points="148.9106,328.9844,160.9106,340.9844,148.9106,352.9844,136.9106,340.9844,148.9106,328.9844" style="stroke:#181818;stroke-width:0.5;"/><rect fill="#F1F1F1" height="35.0938" rx="12.5" ry="12.5" style="stroke:#181818;stroke-width:0.5;" width="156.0605" x="70.8804" y="372.9844"/><text fill="#000000" font-family="sans-serif" font-size="12" lengthAdjust="spacing" textLength="136.0605" x="80.8804" y="395.4414">return result or side effect</text><ellipse cx="148.9106" cy="439.0781" fill="none" rx="11" ry="11" style="stroke:#222222;stroke-width:1;"/><ellipse cx="148.9106" cy="439.0781" fill="#222222" rx="6" ry="6" style="stroke:#222222;stroke-width:1;"/><line style="stroke:#181818;stroke-width:1;" x1="148.9106" x2="148.9106" y1="68.6094" y2="88.6094"/><polygon fill="#181818" points="144.9106,78.6094,148.9106,88.6094,152.9106,78.6094,148.9106,82.6094" style="stroke:#181818;stroke-width:1;"/><line style="stroke:#181818;stroke-width:1;" x1="148.9106" x2="148.9106" y1="123.7031" y2="143.7031"/><polygon fill="#181818" points="144.9106,133.7031,148.9106,143.7031,152.9106,133.7031,148.9106,137.7031" style="stroke:#181818;stroke-width:1;"/><line style="stroke:#181818;stroke-width:1;" x1="148.9106" x2="148.9106" y1="178.7969" y2="198.7969"/><polygon fill="#181818" points="144.9106,188.7969,148.9106,198.7969,152.9106,188.7969,148.9106,192.7969" style="stroke:#181818;stroke-width:1;"/><line style="stroke:#181818;stroke-width:1;" x1="95.0215" x2="76.04" y1="265.8906" y2="265.8906"/><line style="stroke:#181818;stroke-width:1;" x1="76.04" x2="76.04" y1="265.8906" y2="287.8906"/><polygon fill="#181818" points="72.04,277.8906,76.04,287.8906,80.04,277.8906,76.04,281.8906" style="stroke:#181818;stroke-width:1;"/><line style="stroke:#181818;stroke-width:1;" x1="202.7998" x2="221.7813" y1="265.8906" y2="265.8906"/><line style="stroke:#181818;stroke-width:1;" x1="221.7813" x2="221.7813" y1="265.8906" y2="287.8906"/><polygon fill="#181818" points="217.7813,277.8906,221.7813,287.8906,225.7813,277.8906,221.7813,281.8906" style="stroke:#181818;stroke-width:1;"/><line style="stroke:#181818;stroke-width:1;" x1="76.04" x2="76.04" y1="322.9844" y2="340.9844"/><line style="stroke:#181818;stroke-width:1;" x1="76.04" x2="136.9106" y1="340.9844" y2="340.9844"/><polygon fill="#181818" points="126.9106,336.9844,136.9106,340.9844,126.9106,344.9844,130.9106,340.9844" style="stroke:#181818;stroke-width:1;"/><line style="stroke:#181818;stroke-width:1;" x1="221.7813" x2="221.7813" y1="322.9844" y2="340.9844"/><line style="stroke:#181818;stroke-width:1;" x1="221.7813" x2="160.9106" y1="340.9844" y2="340.9844"/><polygon fill="#181818" points="170.9106,336.9844,160.9106,340.9844,170.9106,344.9844,166.9106,340.9844" style="stroke:#181818;stroke-width:1;"/><line style="stroke:#181818;stroke-width:1;" x1="148.9106" x2="148.9106" y1="233.8906" y2="253.8906"/><polygon fill="#181818" points="144.9106,243.8906,148.9106,253.8906,152.9106,243.8906,148.9106,247.8906" style="stroke:#181818;stroke-width:1;"/><line style="stroke:#181818;stroke-width:1;" x1="148.9106" x2="148.9106" y1="352.9844" y2="372.9844"/><polygon fill="#181818" points="144.9106,362.9844,148.9106,372.9844,152.9106,362.9844,148.9106,366.9844" style="stroke:#181818;stroke-width:1;"/><line style="stroke:#181818;stroke-width:1;" x1="148.9106" x2="148.9106" y1="408.0781" y2="428.0781"/><polygon fill="#181818" points="144.9106,418.0781,148.9106,428.0781,152.9106,418.0781,148.9106,422.0781" style="stroke:#181818;stroke-width:1;"/><?plantuml-src BOunJWD134NxEONBJH7eTulSWHkO6IzhCUjPsHu4PTfm12wG0u2458dJ9E4Qp0Aj__z-pzapGIppZ9AsHlh4aMxSO0ldpzFrO_zzVBs-dow7u-NjAvYZUkX9d1GYIgHyLsK8VIwOW6MfVXjBIv-z7RKApCW2HUD4vehEHS2S5Xi2Zz0zLDJKOhZNzcpQRS0d4kXUo3O1e7TyNEKayRh430lwD0JAHj19-UsiF9PAVwZ_GbkCJO2yge2IrUmhnZWHq3XIR7xcPVa1?></g></svg>