<?plantuml 1.2026.2?><svg xmlns="http://www.w3.org/2000/svg" xmlns:xlink="http://www.w3.org/1999/xlink" contentStyleType="text/css" data-diagram-type="ACTIVITY" height="309px" preserveAspectRatio="none" style="width:534px;height:309px;background:#FFFFFF;" version="1.1" viewBox="0 0 534 309" width="534px" zoomAndPan="magnify"><title>workflow.ts - &#20998;&#25903;&#21028;&#23450;&#22270;</title><defs/><g><g class="title" data-source-line="1"><text fill="#000000" font-family="sans-serif" font-size="14" font-weight="bold" lengthAdjust="spacing" textLength="161.6357" x="184.9623" y="34.5332">workflow.ts - &#20998;&#25903;&#21028;&#23450;&#22270;</text></g><ellipse cx="263.4226" cy="58.6094" fill="#222222" rx="10" ry="10" style="stroke:#222222;stroke-width:1;"/><rect fill="#F1F1F1" height="35.0938" rx="12.5" ry="12.5" style="stroke:#181818;stroke-width:0.5;" width="131.4043" x="197.7205" y="88.6094"/><text fill="#000000" font-family="sans-serif" font-size="12" lengthAdjust="spacing" textLength="111.4043" x="207.7205" y="111.0664">enter branching logic</text><polygon fill="#F1F1F1" points="32,143.7031,105.9761,143.7031,117.9761,155.7031,105.9761,167.7031,32,167.7031,20,155.7031,32,143.7031" style="stroke:#181818;stroke-width:0.5;"/><text fill="#000000" font-family="sans-serif" font-size="11" lengthAdjust="spacing" textLength="17.1177" x="72.988" y="179.1221">yes</text><text fill="#000000" font-family="sans-serif" font-size="11" lengthAdjust="spacing" textLength="73.9761" x="32" y="160.2041">primary guard?</text><rect fill="#F1F1F1" height="35.0938" rx="12.5" ry="12.5" style="stroke:#181818;stroke-width:0.5;" width="111.4063" x="13.2849" y="201.5391"/><text fill="#000000" font-family="sans-serif" font-size="12" lengthAdjust="spacing" textLength="91.4063" x="23.2849" y="223.9961">run guarded path</text><polygon fill="#F1F1F1" points="168.7583,143.7031,272.7158,143.7031,284.7158,155.7031,272.7158,167.7031,168.7583,167.7031,156.7583,155.7031,168.7583,143.7031" style="stroke:#181818;stroke-width:0.5;"/><text fill="#000000" font-family="sans-serif" font-size="11" lengthAdjust="spacing" textLength="103.9575" x="168.7583" y="160.2041">secondary condition?</text><rect fill="#F1F1F1" height="35.0938" rx="12.5" ry="12.5" style="stroke:#181818;stroke-width:0.5;" width="172.0918" x="134.6912" y="187.7031"/><text fill="#000000" font-family="sans-serif" font-size="12" lengthAdjust="spacing" textLength="152.0918" x="144.6912" y="210.1602">run fallback or alternate path</text><rect fill="#F1F1F1" height="35.0938" rx="12.5" ry="12.5" style="stroke:#181818;stroke-width:0.5;" width="196.7773" x="326.783" y="197.6211"/><text fill="#000000" font-family="sans-serif" font-size="12" lengthAdjust="spacing" textLength="176.7773" x="336.783" y="220.0781">exit early or continue default path</text><ellipse cx="263.4226" cy="287.6328" fill="none" rx="11" ry="11" style="stroke:#222222;stroke-width:1;"/><ellipse cx="263.4226" cy="287.6328" fill="#222222" rx="6" ry="6" style="stroke:#222222;stroke-width:1;"/><line style="stroke:#181818;stroke-width:1;" x1="263.4226" x2="263.4226" y1="68.6094" y2="88.6094"/><polygon fill="#181818" points="259.4226,78.6094,263.4226,88.6094,267.4226,78.6094,263.4226,82.6094" style="stroke:#181818;stroke-width:1;"/><line style="stroke:#181818;stroke-width:1;" x1="68.988" x2="68.988" y1="167.7031" y2="201.5391"/><polygon fill="#181818" points="64.988,191.5391,68.988,201.5391,72.988,191.5391,68.988,195.5391" style="stroke:#181818;stroke-width:1;"/><line style="stroke:#181818;stroke-width:1;" x1="68.988" x2="68.988" y1="236.6328" y2="256.6328"/><polygon fill="#181818" points="64.988,246.6328,68.988,256.6328,72.988,246.6328,68.988,250.6328" style="stroke:#181818;stroke-width:1;"/><line style="stroke:#181818;stroke-width:1;" x1="220.7371" x2="220.7371" y1="167.7031" y2="187.7031"/><polygon fill="#181818" points="216.7371,177.7031,220.7371,187.7031,224.7371,177.7031,220.7371,181.7031" style="stroke:#181818;stroke-width:1;"/><line style="stroke:#181818;stroke-width:1;" x1="220.7371" x2="220.7371" y1="222.7969" y2="256.6328"/><polygon fill="#181818" points="216.7371,246.6328,220.7371,256.6328,224.7371,246.6328,220.7371,250.6328" style="stroke:#181818;stroke-width:1;"/><line style="stroke:#181818;stroke-width:1;" x1="117.9761" x2="156.7583" y1="155.7031" y2="155.7031"/><polygon fill="#181818" points="146.7583,151.7031,156.7583,155.7031,146.7583,159.7031,150.7583,155.7031" style="stroke:#181818;stroke-width:1;"/><line style="stroke:#181818;stroke-width:1;" x1="263.4226" x2="263.4226" y1="123.7031" y2="128.7031"/><line style="stroke:#181818;stroke-width:1;" x1="263.4226" x2="68.988" y1="128.7031" y2="128.7031"/><line style="stroke:#181818;stroke-width:1;" x1="68.988" x2="68.988" y1="128.7031" y2="143.7031"/><polygon fill="#181818" points="64.988,133.7031,68.988,143.7031,72.988,133.7031,68.988,137.7031" style="stroke:#181818;stroke-width:1;"/><line style="stroke:#181818;stroke-width:1;" x1="284.7158" x2="425.1716" y1="155.7031" y2="155.7031"/><line style="stroke:#181818;stroke-width:1;" x1="425.1716" x2="425.1716" y1="155.7031" y2="197.6211"/><polygon fill="#181818" points="421.1716,187.6211,425.1716,197.6211,429.1716,187.6211,425.1716,191.6211" style="stroke:#181818;stroke-width:1;"/><line style="stroke:#181818;stroke-width:1;" x1="425.1716" x2="425.1716" y1="232.7148" y2="256.6328"/><polygon fill="#181818" points="421.1716,246.6328,425.1716,256.6328,429.1716,246.6328,425.1716,250.6328" style="stroke:#181818;stroke-width:1;"/><line style="stroke:#181818;stroke-width:1;" x1="68.988" x2="425.1716" y1="256.6328" y2="256.6328"/><line style="stroke:#181818;stroke-width:1;" x1="263.4226" x2="263.4226" y1="256.6328" y2="276.6328"/><polygon fill="#181818" points="259.4226,266.6328,263.4226,276.6328,267.4226,266.6328,263.4226,270.6328" style="stroke:#181818;stroke-width:1;"/><?plantuml-src JO-nhS90343xcy8b53005CnY4bzYONoHpn5aWIy6-1MqrB01suGvo0c1g5pulMVPsONWa6mN9HsMdc41u-dl-NyVJzVnTXulZv0TpSEArCbWQwXLozg0f8QhTU08iyvuZpP0qwFLcpbuImgpWV8y0Aoir_U6QkZGstKWoLIyJ5NIkfXbidFIpLU9ABB5QWV906MwhUZq4oWS7Tc1q6Ger1HnrfwWfeYz-0UUqd7w8dKl?></g></svg>